<svg xmlns="http://www.w3.org/2000/svg" viewBox="0 0 1200 630">
  <defs>
    <linearGradient id="bgGrad" x1="0%" y1="0%" x2="100%" y2="100%">
      <stop offset="0%" style="stop-color:#0a1a0f"/>
      <stop offset="100%" style="stop-color:#0f2318"/>
    </linearGradient>
    <linearGradient id="shieldGrad" x1="0%" y1="0%" x2="100%" y2="100%">
      <stop offset="0%" style="stop-color:#00ff88"/>
      <stop offset="50%" style="stop-color:#00d4aa"/>
      <stop offset="100%" style="stop-color:#00b4d8"/>
    </linearGradient>
    <filter id="glow">
      <feGaussianBlur stdDeviation="4" result="coloredBlur"/>
      <feMerge>
        <feMergeNode in="coloredBlur"/>
        <feMergeNode in="SourceGraphic"/>
      </feMerge>
    </filter>
  </defs>
  
  <!-- Фон -->
  <rect width="1200" height="630" fill="url(#bgGrad)"/>
  
  <!-- Матричные символы -->
  <g fill="#00ff8815" font-family="monospace" font-size="16">
    <text x="50" y="100">01001011 10110100 01101001</text>
    <text x="900" y="150">10110010 01001101</text>
    <text x="100" y="550">11010011 01101010</text>
    <text x="850" y="580">01101001 10110100</text>
    <text x="50" y="300">1010</text>
    <text x="1120" y="400">0101</text>
  </g>
  
  <!-- Щит слева -->
  <g transform="translate(150, 165)">
    <path d="M150 0 L280 40 L280 170 C280 250 220 290 150 310 C80 290 20 250 20 170 L20 40 Z" 
          fill="#00ff8810"
          stroke="url(#shieldGrad)" 
          stroke-width="4"
          filter="url(#glow)"/>
    <path d="M120 155 L120 110 C120 80 133 60 150 60 C167 60 180 80 180 110 L180 155" 
          fill="none" stroke="url(#shieldGrad)" stroke-width="10" stroke-linecap="round" filter="url(#glow)"/>
    <rect x="100" y="150" width="100" height="75" rx="8" 
          fill="#0a1a0f" stroke="url(#shieldGrad)" stroke-width="4" filter="url(#glow)"/>
    <circle cx="150" cy="182" r="12" fill="#00ff88" filter="url(#glow)"/>
    <rect x="146" y="182" width="8" height="22" fill="#00ff88" filter="url(#glow)"/>
  </g>
  
  <!-- Текст -->
  <text x="480" y="280" font-family="Arial, sans-serif" font-size="72" font-weight="bold" fill="url(#shieldGrad)" filter="url(#glow)">
    CyberSec Wiki
  </text>
  <text x="480" y="350" font-family="Arial, sans-serif" font-size="32" fill="#00d4aa" opacity="0.8">
    База знаний по информационной безопасности
  </text>
  
  <!-- Теги -->
  <g font-family="Arial, sans-serif" font-size="20" fill="#00ff88" opacity="0.6">
    <text x="480" y="420">🔐 Криптография</text>
    <text x="700" y="420">🌐 Сети</text>
    <text x="850" y="420">💻 Архитектура</text>
    <text x="480" y="460">⚖️ Законодательство</text>
    <text x="730" y="460">🛠️ 35+ инструментов</text>
  </g>
</svg>
